PathFileType	4	(X/Y/Z)	Patient4_TMGait_0pt3_03_left_01.trc.trc
DataRate	CameraRate	NumFrames	NumMarkers	Units	OrigDataRate	OrigDataStartFrame	OrigNumFrames
56.000000000000	56.000000000000	4	33	mm	56.000000000000	89	       141
Frame#	Time	Sacral			L.Shoulder			Chest			R.Shoulder			Neck			R.ASIS			L.ASIS			R.Thigh.Superior			R.Thigh.Lateral			R.Thigh.Inferior			R.Patella			L.Thigh.Superior			L.Thigh.Lateral			L.Thigh.Inferior			L.Patella			L.Shank.Superior			L.Shank.Lateral			L.Shank.Inferior			R.Shank.Superior			R.Shank.Lateral			R.Shank.Inferior			R.Heel			R.Midfoot.Superior			R.Midfoot.Lateral			R.Toe			L.Heel			L.Midfoot.Lateral			L.Midfoot.Superior			L.Toe			L.Elbow			L.Wrist			R.Elbow			R.Wrist			
		X1	Y1	Z1	X2	Y2	Z2	X3	Y3	Z3	X4	Y4	Z4	X5	Y5	Z5	X6	Y6	Z6	X7	Y7	Z7	X8	Y8	Z8	X9	Y9	Z9	X10	Y10	Z10	X11	Y11	Z11	X12	Y12	Z12	X13	Y13	Z13	X14	Y14	Z14	X15	Y15	Z15	X16	Y16	Z16	X17	Y17	Z17	X18	Y18	Z18	X19	Y19	Z19	X20	Y20	Z20	X21	Y21	Z21	X22	Y22	Z22	X23	Y23	Z23	X24	Y24	Z24	X25	Y25	Z25	X26	Y26	Z26	X27	Y27	Z27	X28	Y28	Z28	X29	Y29	Z29	X30	Y30	Z30	X31	Y31	Z31	X32	Y32	Z32	X33	Y33	Z33	

89	2.471428571429	750.490328542561	1013.431822028455	453.422707052439	1005.400891549475	1428.275523181305	321.947860391853	1062.328022955405	1345.282398796862	497.721546804004	953.209381164529	1427.414210596431	652.292159451321	975.118462583550	1488.305338080794	474.917057636838	957.520760972371	935.766179128823	605.880807517042	983.173562611019	953.807136726022	330.973877816422	1014.594237954047	746.368618590888	571.435109692442	939.919743927133	632.175487130220	627.656821081996	1023.893282838926	585.935113794021	549.289824508114	1031.953815588067	498.520394522082	556.364270888242	988.535075710460	726.770130634193	359.040749299002	885.438303716531	625.526104521498	287.226787850629	946.881351076689	534.796738555864	357.328717715928	933.674019559761	461.769457022862	362.013603303062	885.608346738030	401.130703999572	349.425460990752	770.331370197487	316.548891379614	289.780219954915	786.762727096684	192.778003771481	357.423442611043	1005.626378363182	407.826846674518	565.125530118150	937.619075820267	304.210462126084	631.556672196037	980.492662059074	208.839885173206	569.354024657914	847.824739246376	42.165835744426	551.937954961414	1021.425725084077	98.133688912106	573.229922059062	937.452075276182	37.107037732469	619.150145067333	1143.154332855338	48.883632350908	590.097779707987	624.971941504869	59.117620121534	386.926097664215	701.535270491453	45.412922101222	311.020684948238	790.816924234104	99.181880436770	339.610626837249	912.579421054832	38.051064081322	316.865305940354	1067.950301527612	1092.933125289120	186.214450127370	1303.701673212825	1022.791490574668	265.066250350746	791.726292693770	1110.045603542554	731.480076546406	812.212426251648	849.529364657685	736.535691165652	
90	2.489285714286	751.570590701603	1014.103095000352	458.186000799582	1004.642392134726	1429.374751139838	324.957211782440	1063.002431268427	1346.523577096573	500.371506953173	954.638968148927	1428.438725523796	655.614839163376	975.149672710615	1489.349900974035	478.091251593724	959.567856235580	936.515844838443	609.201299224980	983.386412741806	954.680705523764	334.153114950897	1014.743273938795	745.752546377513	574.531164633483	938.851011233659	632.130478416723	630.340190796836	1022.008065529885	585.269440924912	551.512543744684	1029.189967582839	497.964524670567	557.941450701428	990.956740803344	728.190186147101	361.739909243845	888.890255334868	626.007490641124	290.017661564990	952.247389617554	535.394694854038	359.237503840938	939.555813058746	461.166768707586	363.015497149650	889.383872233697	401.422534354310	350.701974048851	771.818795106399	320.047371501730	291.289096672633	786.152685913503	195.159357375409	357.323092706481	1002.439589121633	407.476262842095	566.394534772024	934.154741543095	303.949942028982	632.578247399067	976.115328665931	208.607998825621	569.778892604809	842.641238574432	42.241763602206	552.072737749003	1016.342440958684	98.020414078044	573.332779232442	932.305675868817	37.105704142939	619.215827933118	1138.082713216697	48.487278399287	590.186620890279	621.428045075984	65.765923185199	386.617499090972	697.372982122204	49.196525023225	310.876085499633	788.145822275054	100.384729586826	339.028631447383	907.517562696114	37.491692625403	316.833311345366	1063.517032133348	1092.672864573503	189.736932728635	1295.735118362808	1010.349506434213	268.367651883926	797.231843942698	1109.363729027056	737.778025245691	827.777179538412	850.074069455262	743.849975477470	
91	2.507142857143	752.599153348086	1014.650324157907	463.032054651793	1003.478431661578	1430.416361644398	327.727287197808	1063.522257991642	1347.770590004740	502.724957449849	956.078178604487	1429.422471899599	658.752493692907	974.937392333834	1490.347266598153	481.075379274925	961.693060145342	937.196628619085	612.392703441887	983.466496781576	955.537180473237	337.251257786742	1014.885864201069	745.019984164414	577.441475602026	937.833420411597	632.023983981650	632.939772214716	1020.086812021303	584.540249940334	553.575020514725	1026.369826497780	497.346746399512	559.389710278805	994.072127606276	729.880175021469	364.446655698971	893.596839424261	626.374612369582	292.817319495720	959.228725065642	536.142602817214	361.207767450080	947.164062030135	460.573633248397	364.044385825843	894.748619776332	401.670809931396	352.063314098607	774.801910896059	323.950449017091	292.804795166333	786.497879879981	198.046479707205	357.247699466529	999.220587170046	407.082599625335	567.562601346369	930.739184052316	303.645921714020	633.580206122412	971.721915237781	208.337964467032	570.125824454727	837.418135857529	42.323688348414	552.174263566874	1011.244714190354	97.860498109308	573.370624761400	927.124897286552	37.116071904152	619.242466854507	1132.993272486527	47.963370707755	590.255074699399	618.473790699249	73.925370729600	386.212344381266	693.599233802653	54.096368751682	310.669273006337	786.001050619049	102.045739853518	338.470766655652	902.387386405245	36.814425443792	316.902931840285	1058.556716653246	1092.318388204199	193.202612176656	1286.397252824571	996.715441749423	270.975177830360	803.126050642597	1108.736623683733	744.361755008289	843.813774101657	851.041717816303	751.143342557063	
92	2.525000000000	753.548530989224	1015.033131808549	467.935210255693	1001.941922630053	1431.325342117389	330.248662258263	1063.883409864174	1348.944069679307	504.776860449145	957.528352664907	1430.304495535269	661.686962235989	974.500836607434	1491.233812780930	483.856410241625	963.867987723181	937.774034435139	615.446677396128	983.400340453287	956.324118466520	340.285593786780	1015.087375590693	744.209932117120	580.155864441852	936.965220213084	631.848731010936	635.445772204921	1018.265394289623	583.765010085909	555.495232279805	1023.657919664031	496.650292302474	560.744459659099	997.840039933051	731.827421996195	367.209347403230	899.571917171406	626.635770643255	295.627242752793	967.774940832064	537.083743877743	363.301649462236	956.451212848631	460.059271578816	365.181101453665	901.705777816079	401.905911074422	353.557825054297	779.344342535999	328.280952636369	294.324206133420	787.840169054585	201.514989412487	357.242503078168	996.088294694184	406.623749777657	568.649651947641	927.429017094732	303.293068515254	634.551939339151	967.358440763323	208.015382337174	570.409950038513	832.145747461389	42.408084494292	552.245753791768	1006.115266774595	97.668204682019	573.357034108629	921.897444662849	37.134680489786	619.238179835701	1127.871762078552	47.343286501290	590.312421804880	616.220425148083	83.715310746318	385.693924463033	690.319222348193	60.277921187967	310.393498854252	784.427308919090	104.293615261802	337.982594351270	897.197638691235	36.005815912914	317.097936991004	1053.017137990366	1091.764167522406	196.653160579634	1275.540187573542	982.048077550805	272.781872336150	809.531501781077	1108.066688001212	751.202803671236	860.303193400128	852.310532273040	758.335733405848	
